<svg width="32.000000" height="32.000000" viewBox="0 0 32 32" fill="none" xmlns="http://www.w3.org/2000/svg" xmlns:xlink="http://www.w3.org/1999/xlink">
	<desc>
			Created with Pixso.
	</desc>
	<defs>
		<clipPath id="clip6_130">
			<rect id="tabler-icon-steering-wheel" width="32.000000" height="32.000000" fill="white" fill-opacity="0"/>
		</clipPath>
	</defs>
	<rect id="tabler-icon-steering-wheel" width="32.000000" height="32.000000" fill="#FFFFFF" fill-opacity="0"/>
	<g clip-path="url(#clip6_130)">
		<path id="Vector" d="M4.91 20.59C5.51 22.04 6.4 23.37 7.51 24.48C8.62 25.59 9.95 26.48 11.4 27.08C12.86 27.68 14.42 28 16 28C17.57 28 19.13 27.68 20.59 27.08C22.04 26.48 23.37 25.59 24.48 24.48C25.59 23.37 26.48 22.04 27.08 20.59C27.68 19.13 28 17.57 28 16C28 14.42 27.68 12.86 27.08 11.4C26.48 9.95 25.59 8.62 24.48 7.51C23.37 6.4 22.04 5.51 20.59 4.91C19.13 4.31 17.57 4 16 4C14.42 4 12.86 4.31 11.4 4.91C9.95 5.51 8.62 6.4 7.51 7.51C6.4 8.62 5.51 9.95 4.91 11.4C4.31 12.86 4 14.42 4 16C4 17.57 4.31 19.13 4.91 20.59ZM14.11 17.88C14.61 18.38 15.29 18.66 16 18.66C16.7 18.66 17.38 18.38 17.88 17.88C18.38 17.38 18.66 16.7 18.66 16C18.66 15.29 18.38 14.61 17.88 14.11C17.38 13.61 16.7 13.33 16 13.33C15.29 13.33 14.61 13.61 14.11 14.11C13.61 14.61 13.33 15.29 13.33 16C13.33 16.7 13.61 17.38 14.11 17.88ZM16 18.66L16 28M13.33 16L4.33 13.33M18.66 16L27.66 " stroke="#030712" stroke-opacity="0.700000" stroke-width="2.000000" stroke-linejoin="round" stroke-linecap="round"/>
	</g>
</svg>
